G04 #@! TF.FileFunction,Soldermask,Bot*
%FSLAX46Y46*%
G04 Gerber Fmt 4.6, Leading zero omitted, Abs format (unit mm)*
G04 Created by KiCad (PCBNEW 201609300949+7268~55~ubuntu14.04.1-) date Sun Oct  2 06:57:28 2016*
%MOMM*%
%LPD*%
G01*
G04 APERTURE LIST*
%ADD10C,0.100000*%
%ADD11C,2.150000*%
%ADD12R,2.150000X2.150000*%
%ADD13C,3.150000*%
%ADD14C,2.178000*%
%ADD15R,2.250000X2.250000*%
%ADD16C,2.250000*%
%ADD17R,2.127200X2.127200*%
%ADD18O,2.127200X2.127200*%
%ADD19C,1.924000*%
G04 APERTURE END LIST*
D10*
D11*
X148380000Y-78994000D03*
X148380000Y-76454000D03*
X150920000Y-78994000D03*
X150920000Y-76454000D03*
X143300000Y-76454000D03*
X143300000Y-78994000D03*
D12*
X115360000Y-78994000D03*
D11*
X115360000Y-76454000D03*
X117900000Y-78994000D03*
X117900000Y-76454000D03*
X120440000Y-78994000D03*
X120440000Y-76454000D03*
X122980000Y-78994000D03*
X122980000Y-76454000D03*
X125520000Y-78994000D03*
X125520000Y-76454000D03*
X128060000Y-78994000D03*
X128060000Y-76454000D03*
X130600000Y-78994000D03*
X130600000Y-76454000D03*
X133140000Y-78994000D03*
X133140000Y-76454000D03*
X135680000Y-78994000D03*
X135680000Y-76454000D03*
X138220000Y-78994000D03*
X138220000Y-76454000D03*
X140760000Y-78994000D03*
X140760000Y-76454000D03*
X145840000Y-78994000D03*
X145840000Y-76454000D03*
X153460000Y-78994000D03*
X153460000Y-76454000D03*
X156000000Y-78994000D03*
X156000000Y-76454000D03*
X158540000Y-78994000D03*
X158540000Y-76454000D03*
X161080000Y-78994000D03*
X161080000Y-76454000D03*
X163620000Y-78994000D03*
X163620000Y-76454000D03*
D13*
X110490000Y-77724000D03*
X168490000Y-77724000D03*
X110490000Y-126724000D03*
X168490000Y-126724000D03*
D14*
X148336000Y-118872000D03*
X148336000Y-113792000D03*
D15*
X160020000Y-84582000D03*
D16*
X162520000Y-84582000D03*
D15*
X122508000Y-86614000D03*
D16*
X125008000Y-86614000D03*
X127508000Y-86614000D03*
X130008000Y-86614000D03*
X132508000Y-86614000D03*
X135008000Y-86614000D03*
D15*
X122468000Y-92456000D03*
D16*
X124968000Y-92456000D03*
X127468000Y-92456000D03*
X129968000Y-92456000D03*
D15*
X110490000Y-108886000D03*
D16*
X110490000Y-106386000D03*
X110490000Y-103886000D03*
X110490000Y-101386000D03*
X110490000Y-98886000D03*
X110490000Y-96386000D03*
D15*
X155020000Y-122936000D03*
D16*
X157520000Y-122936000D03*
X160020000Y-122936000D03*
X162520000Y-122936000D03*
D15*
X135890000Y-116078000D03*
D16*
X138390000Y-116078000D03*
D17*
X182118000Y-83820000D03*
D18*
X184658000Y-83820000D03*
X182118000Y-86360000D03*
X184658000Y-86360000D03*
X182118000Y-88900000D03*
X184658000Y-88900000D03*
X182118000Y-91440000D03*
X184658000Y-91440000D03*
X182118000Y-93980000D03*
X184658000Y-93980000D03*
X182118000Y-96520000D03*
X184658000Y-96520000D03*
X182118000Y-99060000D03*
X184658000Y-99060000D03*
X182118000Y-101600000D03*
X184658000Y-101600000D03*
X182118000Y-104140000D03*
X184658000Y-104140000D03*
X182118000Y-106680000D03*
X184658000Y-106680000D03*
X182118000Y-109220000D03*
X184658000Y-109220000D03*
X182118000Y-111760000D03*
X184658000Y-111760000D03*
X182118000Y-114300000D03*
X184658000Y-114300000D03*
X182118000Y-116840000D03*
X184658000Y-116840000D03*
X182118000Y-119380000D03*
X184658000Y-119380000D03*
X182118000Y-121920000D03*
X184658000Y-121920000D03*
D19*
X187198000Y-83820000D03*
X187198000Y-86360000D03*
X187198000Y-88900000D03*
X187198000Y-91440000D03*
X187198000Y-93980000D03*
X187198000Y-96520000D03*
X187198000Y-99060000D03*
X187198000Y-101600000D03*
X187198000Y-104140000D03*
X187198000Y-106680000D03*
X187198000Y-109220000D03*
X187198000Y-111760000D03*
X187198000Y-114300000D03*
X187198000Y-116840000D03*
X187198000Y-119380000D03*
X187198000Y-121920000D03*
D16*
X183094000Y-77724000D03*
D15*
X180594000Y-77724000D03*
M02*
