M48
;DRILL file {KiCad 201609300949+7268~55~ubuntu14.04.1-} date Sun Oct  2 06:57:31 2016
;FORMAT={-:-/ absolute / metric / decimal}
FMAT,2
METRIC,TZ
T1C0.400
T2C0.762
T3C0.813
T4C0.900
T5C1.016
T6C2.750
%
G90
G05
M71
T1
X111.704Y-89.955
X111.99Y-107.57
X112.776Y-117.094
X112.776Y-120.65
X113.03Y-89.916
X113.17Y-107.57
X113.24Y-96.5
X113.27Y-103.88
X113.284Y-80.518
X113.538Y-77.216
X113.538Y-78.486
X114.406Y-89.964
X114.554Y-105.664
X114.554Y-116.332
X115.57Y-105.664
X115.76Y-114.83
X115.78Y-113.59
X115.793Y-87.381
X116.586Y-105.664
X116.85Y-111.29
X117.602Y-105.664
X117.856Y-87.376
X118.97Y-87.37
X119.98Y-87.37
X121.158Y-104.14
X121.158Y-101.346
X122.428Y-106.68
X123.01Y-94.52
X123.19Y-109.22
X124.48Y-111.72
X124.968Y-106.68
X126.812Y-111.694
X127.Y-106.68
X129.29Y-94.51
X129.55Y-117.88
X129.794Y-108.712
X131.15Y-110.236
X131.2Y-124.59
X131.572Y-114.562
X132.08Y-101.6
X132.842Y-108.712
X133.35Y-94.234
X133.35Y-103.73
X134.11Y-104.33
X134.112Y-95.25
X134.874Y-94.234
X136.906Y-94.234
X137.12Y-121.69
X137.48Y-87.19
X137.922Y-95.25
X139.7Y-90.932
X139.7Y-106.68
X140.208Y-94.234
X140.24Y-110.
X140.24Y-120.31
X142.24Y-89.154
X143.08Y-87.18
X143.292Y-84.456
X143.764Y-108.712
X143.764Y-111.252
X144.272Y-97.79
X144.528Y-86.278
X146.18Y-100.86
X146.18Y-103.13
X146.304Y-90.17
X146.304Y-97.79
X146.558Y-109.982
X146.812Y-102.108
X147.071Y-86.331
X147.11Y-80.72
X147.32Y-90.932
X147.32Y-97.79
X148.336Y-111.252
X149.098Y-122.174
X149.3Y-97.76
X149.49Y-100.25
X149.86Y-82.042
X150.622Y-105.41
X151.384Y-82.042
X151.43Y-104.11
X151.892Y-97.028
X152.4Y-122.174
X152.654Y-82.042
X154.69Y-107.72
X154.94Y-92.45
X156.21Y-93.218
X157.988Y-94.996
X160.28Y-109.47
X161.036Y-87.122
X161.98Y-105.38
X162.052Y-89.916
X162.052Y-94.996
X164.516Y-108.463
X164.54Y-109.49
X164.71Y-99.85
X164.846Y-94.234
X164.846Y-96.52
X166.328Y-108.464
X167.64Y-104.394
X167.64Y-105.918
X168.29Y-87.39
X168.376Y-105.105
X168.38Y-103.63
X169.148Y-115.142
X169.418Y-99.822
X169.418Y-101.092
X169.672Y-92.456
X169.926Y-113.792
X170.434Y-93.218
X170.687Y-117.731
X171.45Y-94.234
X171.45Y-96.52
X171.958Y-125.984
X172.466Y-108.966
X172.72Y-119.634
X172.735Y-122.573
X172.747Y-125.106
X173.228Y-102.362
X173.228Y-111.252
X174.Y-110.4
X174.01Y-103.08
X174.014Y-101.581
X174.752Y-100.838
X174.752Y-103.886
X174.78Y-109.51
X175.51Y-108.82
X175.514Y-104.648
X176.276Y-105.41
X176.29Y-108.12
X176.43Y-125.101
X176.437Y-123.794
X176.854Y-128.115
X177.038Y-121.92
X177.1Y-93.93
X177.14Y-96.48
X177.838Y-128.123
T2
X187.198Y-83.82
X187.198Y-86.36
X187.198Y-88.9
X187.198Y-91.44
X187.198Y-93.98
X187.198Y-96.52
X187.198Y-99.06
X187.198Y-101.6
X187.198Y-104.14
X187.198Y-106.68
X187.198Y-109.22
X187.198Y-111.76
X187.198Y-114.3
X187.198Y-116.84
X187.198Y-119.38
X187.198Y-121.92
T3
X148.336Y-113.792
X148.336Y-118.872
T4
X110.49Y-96.386
X110.49Y-98.886
X110.49Y-101.386
X110.49Y-103.886
X110.49Y-106.386
X110.49Y-108.886
X122.468Y-92.456
X122.508Y-86.614
X124.968Y-92.456
X125.008Y-86.614
X127.468Y-92.456
X127.508Y-86.614
X129.968Y-92.456
X130.008Y-86.614
X132.508Y-86.614
X135.008Y-86.614
X135.89Y-116.078
X138.39Y-116.078
X155.02Y-122.936
X157.52Y-122.936
X160.02Y-84.582
X160.02Y-122.936
X162.52Y-84.582
X162.52Y-122.936
X180.594Y-77.724
X183.094Y-77.724
T5
X115.36Y-76.454
X115.36Y-78.994
X117.9Y-76.454
X117.9Y-78.994
X120.44Y-76.454
X120.44Y-78.994
X122.98Y-76.454
X122.98Y-78.994
X125.52Y-76.454
X125.52Y-78.994
X128.06Y-76.454
X128.06Y-78.994
X130.6Y-76.454
X130.6Y-78.994
X133.14Y-76.454
X133.14Y-78.994
X135.68Y-76.454
X135.68Y-78.994
X138.22Y-76.454
X138.22Y-78.994
X140.76Y-76.454
X140.76Y-78.994
X143.3Y-76.454
X143.3Y-78.994
X145.84Y-76.454
X145.84Y-78.994
X148.38Y-76.454
X148.38Y-78.994
X150.92Y-76.454
X150.92Y-78.994
X153.46Y-76.454
X153.46Y-78.994
X156.Y-76.454
X156.Y-78.994
X158.54Y-76.454
X158.54Y-78.994
X161.08Y-76.454
X161.08Y-78.994
X163.62Y-76.454
X163.62Y-78.994
X182.118Y-83.82
X182.118Y-86.36
X182.118Y-88.9
X182.118Y-91.44
X182.118Y-93.98
X182.118Y-96.52
X182.118Y-99.06
X182.118Y-101.6
X182.118Y-104.14
X182.118Y-106.68
X182.118Y-109.22
X182.118Y-111.76
X182.118Y-114.3
X182.118Y-116.84
X182.118Y-119.38
X182.118Y-121.92
X184.658Y-83.82
X184.658Y-86.36
X184.658Y-88.9
X184.658Y-91.44
X184.658Y-93.98
X184.658Y-96.52
X184.658Y-99.06
X184.658Y-101.6
X184.658Y-104.14
X184.658Y-106.68
X184.658Y-109.22
X184.658Y-111.76
X184.658Y-114.3
X184.658Y-116.84
X184.658Y-119.38
X184.658Y-121.92
T6
X110.49Y-77.724
X110.49Y-126.724
X168.49Y-77.724
X168.49Y-126.724
T0
M30
